<?xml version="1.0" encoding="utf-8"?>
<!-- Generator: Adobe Illustrator 27.6.1, SVG Export Plug-In . SVG Version: 6.00 Build 0)  -->
<svg version="1.1" id="Calque_1" xmlns="http://www.w3.org/2000/svg" xmlns:xlink="http://www.w3.org/1999/xlink" x="0px" y="0px"
	 viewBox="0 0 841.9 595.3" style="enable-background:new 0 0 841.9 595.3;" xml:space="preserve">
<style type="text/css">
	.st0{fill:#F29708;}
	.st1{fill:#39586A;}
	.st2{fill:#6D1417;}
</style>
<path class="st0" d="M319.6,15.5c-2.6,1.2-5.1,2.4-7.6,3.4c-5.2,2-10.3,4.5-14.7,7.7c-4.2,3-8.8,5.2-13,8
	c-6.9,4.7-12.8,10.2-19.3,15.3c-6.9,5.5-13,11.6-18.9,18.1c-5.2,5.7-10.5,11.3-14.9,17.7c-2.8,4.1-5.8,8.1-8.6,12.2
	c-0.9,1.3-2.1,1.3-3.4,1.3c-14.8,0-29.6,0-44.4,0c-3.3,0-3.3,0-3.3,3.4c0,25.1,0,50.2,0,75.3c0,64.9-0.1,129.7-0.1,194.6
	c0,40,0.1,80,0.1,120c0,3.5,0,3.5,3.5,3.5c12.2,0,24.4,0,36.5,0c0.8,0,1.9-0.3,2.3,0.5c0.4,0.8-0.3,1.7-0.9,2.4
	c-0.8,0.9-1.7,1.8-2.6,2.6c-5.3,5.1-9.3,11.1-12.8,17.4c-2.6,4.7-4.2,10.1-4.1,15.7c0,5.3-0.1,10.6,0,15.9
	c0.2,7.4,2.4,14.2,6.6,20.4c1.8,2.7,4.1,4.8,6.3,7.2c0.5,0.5,1.5,0.9,1.1,1.7c-0.4,0.7-1.3,0.4-2,0.4c-0.6,0.1-1.3,0-2,0
	c-38.5,0-77,0-115.5,0c-3.9,0-3.9,0-3.9-3.8c0-186,0-372,0-557.9c0-3.6,0-3.7,3.7-3.7c76.3,0,152.7,0,229,0
	C317.5,14.8,318.6,14.4,319.6,15.5z"/>
<path class="st1" d="M349.8,496.5c1.4,0,2.5,0,3.5,0c133.5,0,266.9,0,400.4,0c0.8,0,1.6,0.1,2.5,0c2-0.2,2.8,0.6,2.8,2.6
	c0,26,0,52,0,78c0,2.1-0.8,2.8-2.8,2.6c-0.6-0.1-1.1,0-1.7,0c-169.8,0-339.5-0.1-509.3,0.1c-18.1,0-35.5-13-38-33
	c-1.3-10.9,1.4-20.8,8.5-29.3c10-11.9,20.8-23.1,31.2-34.6c19.3-21.3,38.6-42.5,57.9-63.7c15.8-17.4,31.6-34.7,47.4-52
	c3.2-3.5,6.4-7,9.5-10.5c1.2-1.3,2.3-1.8,4.1-1.1c10.7,3.9,20.9,8.8,29.3,16.4c5.4,4.8,8.8,11.3,11.7,17.9
	c3.7,8.4,4.8,17.4,5.8,26.5c0.2,1.7,0.6,3.4,0.6,5.1c0.1,5.1-1.5,9.2-5.3,13.1c-19.3,20.1-38.3,40.5-57.4,60.8
	C350.4,495.6,350.3,495.8,349.8,496.5z"/>
<path class="st1" d="M572.7,168.4c0.2,27.1-6.4,53.3-17.8,78.4c-12.2,27.1-28.4,51.7-46.4,75.2c-1.2,1.6-1.9,1.9-3.1,0
	c-6.5-10.5-15.5-18.9-24.1-27.7c-8.3-8.5-17.5-15.9-27.6-22.2c-3.3-2.1-6.7-4.1-10.2-5.7c-2.8-1.3-2.8-1.4-0.9-4
	c10.1-13.9,19.7-28.1,27.2-43.6c5.1-10.6,9.7-21.4,10.9-33.1c2.7-24.9-1.4-48-19.1-67.1c-8.6-9.3-19.5-15.3-31.6-19
	c-12.8-4-25.9-5.3-39.2-4.5c-17.8,1.1-33.8,7.8-48.3,18.1c-25.6,18.2-43.5,42.6-56,71.1c-2.5,5.6-4.7,11.3-6.5,17.2
	c-0.6,1.9-1.3,2.3-3.1,1.2c-21.3-13.1-42.7-26.1-64-39.1c-1.4-0.9-1.9-1.7-1.3-3.4c9.9-31.9,25.3-60.7,48.5-85.1
	c28.8-30.3,64-48.5,104.8-56.5c15.7-3.1,31.6-4.3,47.5-3.8c27.4,0.8,53.9,6.1,78.5,18.6c35.8,18.2,60.9,45.9,74,84.1
	c4.1,12.1,6.4,24.6,7.3,37.4C572.5,159.2,572.5,163.5,572.7,168.4z"/>
<path class="st2" d="M609.4,260.4c3.7-4.7,7.4-9.3,11-14c27.9-35.4,55.9-70.9,83.8-106.3c1.1-1.4,2.2-1.9,3.9-1.9
	c15.9,0,31.7,0.1,47.6,0c2.4,0,3.1,0.8,3.1,3.1c-0.1,10.6-0.1,21.3,0,31.9c0,1.9-0.6,3.5-1.7,5c-30.8,39.3-61.6,78.6-92.5,117.9
	c-1.2,1.5-1.3,2.5-0.2,4c19.6,28.3,39.2,56.6,58.8,84.9c11.3,16.3,22.6,32.7,33.9,49c1.1,1.6,1.7,3.3,1.7,5.3c0,13.2,0,26.5,0,39.7
	c0,3-0.3,3.3-3.2,3.3c-14.5,0-29.1,0-43.6,0c-2,0-3.3-0.7-4.5-2.3c-26.4-38.2-52.9-76.3-79.4-114.5c-5.7-8.2-11.4-16.4-17.1-24.6
	c-0.5-0.8-0.9-1.7-1.9-2.2c-0.5,1-0.3,2-0.3,2.9c0,45.6,0,91.1,0,136.7c0,4,0,4-3.9,4c-20.5,0-41,0-61.5,0c-3.8,0-3.9-0.1-3.9-3.8
	c0-56.5,0-113,0-169.5c0-2.2,0.6-3.9,1.8-5.7c11.8-17.6,22.3-35.8,30.5-55.3c6.9-16.4,11.8-33.4,13.8-51.2c1.9-16.8,2-33.6,0.6-50.4
	c-0.2-2-0.3-4.1-0.5-6.1c-0.1-1.4,0.4-2,1.8-2c6.5,0,12.9,0,19.4,0c1.3,0,2,0.6,1.9,1.9c0,0.9,0,1.8,0,2.7c0,38.1,0,76.2,0,114.3
	c0,1,0,2,0,2.9C609,260.3,609.2,260.3,609.4,260.4z"/>
<path class="st0" d="M448.8,482.1c-17.7,0-35.3,0-53,0c-0.8,0-1.9,0.4-2.2-0.4c-0.3-0.9,0.7-1.4,1.3-1.9
	c6.1-4.9,11.6-10.3,16.6-16.2c5.5-6.5,9.4-14.1,13.1-21.8c1.9-4.1,2.6-8.1,2.6-12.5c0.2-11.8-0.2-23.6-2.6-35.1
	c-2.3-11.2-7.6-20.9-15.3-29.4c-10.1-11.1-22.5-18.6-36.6-23.3c-11.3-3.8-23-6.4-35-7c-10.6-0.5-20.4-2.8-29.2-9.1
	c-21-15-23.8-45.7-5.8-64.2c7.1-7.3,15.5-11.7,25.7-13c19-2.4,35.7-9.7,49.4-23.4c11.7-11.8,18.5-25.9,20-42.6
	c1.3-14.8-0.3-29.1-6.8-42.5c-4.2-8.8-10.3-16-18.1-21.9c-0.6-0.5-1.7-0.8-1.6-1.7c0.1-0.9,1.2-1,1.9-1.3c8.4-3.1,17-5.8,26-5.3
	c17.3,1,33.4,5.7,47.5,16.2c5.9,4.4,9.3,10.6,12.5,17c4.6,9.1,6.9,18.9,7.7,29c0.5,6.3-1.2,12.3-2.8,18.3
	c-2.6,9.5-6.7,18.4-11.2,27.1c-7.4,14.1-16.5,27.2-25.8,40.1c-2.8,3.9-6.1,7.2-9.3,10.7c-0.3,0.4-0.6,0.8-0.9,1.1
	c-1.2,1.4-0.8,2.1,0.9,2.7c8.5,3.1,16.6,6.9,24.4,11.5c39.8,23.6,64.3,57.9,71.6,103.9c2.8,17.5,2.5,35.2,0.6,52.8
	c-1.5,13.5-4.4,26.6-8.7,39.4c-0.7,2.2-1.8,2.9-4,2.9C484,482,466.4,482.1,448.8,482.1z"/>
</svg>
